<?xml version="1.0" encoding="utf-8"?>
<svg version="1.1" xmlns:xlink="http://www.w3.org/1999/xlink" width="37px" height="26px" xmlns="http://www.w3.org/2000/svg">
  <g transform="matrix(1 0 0 1 -384 -756 )">
    <path d="M 34.1609933035714 23.4609375  C 34.2917596726191 23.3439867424242  34.3571428571429 23.2054924242424  34 23.0454545454545  L 34 8.86363636363637  C 33.9166666666667 9.30681818181818  33.4417782738095 9.71306818181818  32.9324776785714 10.0823863636364  C 29.2434895833333 12.6183712121212  26.3115699404762 14.6988636363636  24.13671875 16.3238636363636  C 23.4347098214286 16.8532196969697  22.8634672619048 17.265625  22.4229910714286 17.5610795454545  C 21.9825148809524 17.8565340909091  21.3871837797619 18.1550662878788  20.6369977678571 18.4566761363636  C 19.8868117559524 18.7582859848485  19.1813616071429 18.9090909090909  18.5206473214286 18.9090909090909  L 18.5 18.9090909090909  L 18.4793526785714 18.9090909090909  C 17.8186383928571 18.9090909090909  17.1131882440476 18.7582859848485  16.3630022321429 18.4566761363636  C 15.6128162202381 18.1550662878788  15.0174851190476 17.8565340909091  14.5770089285714 17.5610795454545  C 14.1365327380952 17.265625  13.5652901785714 16.8532196969697  12.86328125 16.3238636363636  C 10.6884300595238 14.6988636363636  7.75651041666667 12.6183712121212  4.06752232142857 10.0823863636364  C 3.55822172619048 9.71306818181818  3.08333333333333 9.30681818181818  3 8.86363636363637  L 3 23.0454545454545  C 2.64285714285714 23.2054924242424  2.70824032738095 23.3439867424242  2.83900669642857 23.4609375  C 2.96977306547619 23.5778882575758  3.12462797619048 23.6363636363636  3.30357142857143 23.6363636363636  L 33.6964285714286 23.6363636363636  C 33.8753720238095 23.6363636363636  34.0302269345238 23.5778882575758  34.1609933035714 23.4609375  Z M 33.3970424107143 6.06605113636364  C 34.037109375 5.17353219696969  34.3571428571429 4.36410984848485  34.3571428571429 3.63778409090909  L 34.3571428571429 3.43465909090909  L 34.3571428571429 3.18536931818182  C 34.3571428571429 3.18536931818182  34.3537016369048 3.10535037878787  34.3468191964286 2.9453125  C 34.3399367559524 2.78527462121212  34.3192894345238 2.70833333333333  34.2848772321429 2.71448863636364  C 34.2504650297619 2.72064393939394  34.2126116071429 2.66524621212121  34.1713169642857 2.54829545454546  C 34.1300223214286 2.43134469696969  34.0680803571429 2.38517992424242  33.9854910714286 2.40980113636364  C 33.9029017857143 2.43442234848485  33.8065476190476 2.41903409090909  33.6964285714286 2.36363636363636  L 3.30357142857143 2.36363636363636  C 3.12462797619048 2.36363636363636  2.96977306547619 2.42211174242424  2.83900669642857 2.5390625  C 2.70824032738095 2.65601325757576  2.64285714285714 2.79450757575757  2.64285714285714 2.95454545454546  C 2.64285714285714 5.02272727272727  3.65457589285714 6.77083333333333  5.67801339285714 8.19886363636363  C 8.33463541666667 10.0700757575758  11.094494047619 12.0213068181818  13.9575892857143 14.0525568181818  C 14.0401785714286 14.1141098484848  14.2810639880952 14.2956912878788  14.6802455357143 14.5973011363636  C 15.0794270833333 14.8989109848485  15.3960193452381 15.1297348484848  15.6300223214286 15.2897727272727  C 15.8640252976191 15.4498106060606  16.1702938988095 15.6437026515151  16.548828125 15.8714488636364  C 16.9273623511905 16.0991950757576  17.2749255952381 16.2684659090909  17.5915178571429 16.3792613636364  C 17.9081101190476 16.4900568181818  18.2040550595238 16.5454545454545  18.4793526785714 16.5454545454545  L 18.5 16.5454545454545  L 18.5206473214286 16.5454545454545  C 18.7959449404762 16.5454545454545  19.0918898809524 16.4900568181818  19.4084821428571 16.3792613636364  C 19.7250744047619 16.2684659090909  20.0726376488095 16.0991950757576  20.451171875 15.8714488636364  C 20.8297061011905 15.6437026515151  21.135974702381 15.4498106060606  21.3699776785714 15.2897727272727  C 21.6039806547619 15.1297348484848  21.9205729166667 14.8989109848485  22.3197544642857 14.5973011363636  C 22.7189360119048 14.2956912878788  22.9598214285714 14.1141098484848  23.0424107142857 14.0525568181818  C 25.905505952381 12.0213068181818  28.6653645833333 10.0700757575758  31.3219866071429 8.19886363636363  C 32.0652901785714 7.66950757575757  32.7569754464286 6.95857007575757  33.3970424107143 6.06605113636364  Z M 36.0295758928571 0.867897727272726  C 36.6765252976191 1.44649621212121  37 2.14204545454546  37 2.95454545454546  L 37 23.0454545454545  C 37 23.8579545454545  36.6765252976191 24.5535037878788  36.0295758928571 25.1321022727273  C 35.3826264880952 25.7107007575758  34.6049107142857 26  33.6964285714286 26  L 3.30357142857143 26  C 2.39508928571429 26  1.61737351190476 25.7107007575758  0.970424107142857 25.1321022727273  C 0.323474702380952 24.5535037878788  0 23.8579545454545  0 23.0454545454545  L 0 2.95454545454546  C 0 2.14204545454546  0.323474702380952 1.44649621212121  0.970424107142857 0.867897727272726  C 1.61737351190476 0.289299242424239  2.39508928571429 0  3.30357142857143 0  L 33.6964285714286 0  C 34.6049107142857 0  35.3826264880952 0.289299242424239  36.0295758928571 0.867897727272726  Z " fill-rule="nonzero" fill="#ffffff" stroke="none" transform="matrix(1 0 0 1 384 756 )" />
  </g>
</svg>