<?xml version="1.0" encoding="utf-8"?>
<svg version="1.1" xmlns:xlink="http://www.w3.org/1999/xlink" width="300px" height="40px" viewBox="344 650  300 40" xmlns="http://www.w3.org/2000/svg">
  <path d="M 349 660  A 5 5 0 0 1 354 655 L 634 655  A 5 5 0 0 1 639 660 L 639 680  A 5 5 0 0 1 634 685 L 354 685  A 5 5 0 0 1 349 680 L 349 660  Z " fill-rule="nonzero" fill="#f0f0f0" stroke="none" />
  <path d="M 346.5 660  A 7.5 7.5 0 0 1 354 652.5 L 634 652.5  A 7.5 7.5 0 0 1 641.5 660 L 641.5 680  A 7.5 7.5 0 0 1 634 687.5 L 354 687.5  A 7.5 7.5 0 0 1 346.5 680 L 346.5 660  Z " stroke-width="5" stroke="#0000bf" fill="none" stroke-opacity="0.882352941176471" />
</svg>