<?xml version="1.0" encoding="utf-8"?>
<svg version="1.1" xmlns:xlink="http://www.w3.org/1999/xlink" width="18px" height="20px" xmlns="http://www.w3.org/2000/svg">
  <g transform="matrix(1 0 0 1 -330 -418 )">
    <path d="M 9.9803328290469 15.0669642857143  L 9.99394856278366 11.7522321428571  L 12.0090771558245 13.4040178571429  L 9.9803328290469 15.0669642857143  Z M 9.99394856278366 8.24776785714286  L 9.9803328290469 4.93303571428571  L 12.0090771558245 6.59598214285714  L 9.99394856278366 8.24776785714286  Z M 8.21028744326778 11.7745535714286  L 8.21028744326778 18.59375  L 14.5279878971256 13.4151785714286  L 10.3615733736762 10  L 14.5279878971256 6.58482142857143  L 8.21028744326778 1.40625  L 8.21028744326778 8.22544642857143  L 4.73827534039334 5.37946428571429  L 3.47201210287443 6.41741071428571  L 7.82904689863843 10  L 3.47201210287443 13.5825892857143  L 4.73827534039334 14.6205357142857  L 8.21028744326778 11.7745535714286  Z M 17.5642965204236 5.92075892857143  C 17.8547655068079 7.08519345238095  18 8.44494047619047  18 10  C 18 11.5550595238095  17.8547655068079 12.914806547619  17.5642965204236 14.0792410714286  C 17.2738275340393 15.2436755952381  16.8767019667171 16.1997767857143  16.3729198184569 16.9475446428571  C 15.8691376701967 17.6953125  15.231467473525 18.2998511904762  14.4599092284418 18.7611607142857  C 13.6883509833585 19.2224702380952  12.8645990922844 19.5442708333333  11.9886535552194 19.7265625  C 11.1127080181543 19.9088541666667  10.1164901664145 20  9 20  C 7.88350983358548 20  6.88729198184569 19.9088541666667  6.01134644478064 19.7265625  C 5.13540090771558 19.5442708333333  4.31164901664145 19.2224702380952  3.54009077155825 18.7611607142857  C 2.76853252647504 18.2998511904762  2.13086232980333 17.6953125  1.62708018154312 16.9475446428571  C 1.1232980332829 16.1997767857143  0.726172465960666 15.2436755952381  0.435703479576399 14.0792410714286  C 0.145234493192133 12.914806547619  0 11.5550595238095  0 10  C 0 8.44494047619047  0.145234493192133 7.08519345238095  0.435703479576399 5.92075892857143  C 0.726172465960666 4.7563244047619  1.1232980332829 3.80022321428571  1.62708018154312 3.05245535714286  C 2.13086232980333 2.3046875  2.76853252647504 1.70014880952381  3.54009077155825 1.23883928571429  C 4.31164901664145 0.777529761904761  5.13540090771558 0.455729166666665  6.01134644478064 0.2734375  C 6.88729198184569 0.0911458333333348  7.88350983358548 0  9 0  C 10.1164901664145 0  11.1127080181543 0.0911458333333348  11.9886535552194 0.2734375  C 12.8645990922844 0.455729166666665  13.6883509833585 0.777529761904761  14.4599092284418 1.23883928571429  C 15.231467473525 1.70014880952381  15.8691376701967 2.3046875  16.3729198184569 3.05245535714286  C 16.8767019667171 3.80022321428571  17.2738275340393 4.7563244047619  17.5642965204236 5.92075892857143  Z " fill-rule="nonzero" fill="#d9001b" stroke="none" fill-opacity="0.882352941176471" transform="matrix(1 0 0 1 330 418 )" />
  </g>
</svg>