<?xml version="1.0" encoding="utf-8"?>
<svg version="1.1" xmlns:xlink="http://www.w3.org/1999/xlink" width="16px" height="16px" viewBox="348 722  16 16" xmlns="http://www.w3.org/2000/svg">
  <path d="M 356 722  C 360.48 722  364 725.52  364 730  C 364 734.48  360.48 738  356 738  C 351.52 738  348 734.48  348 730  C 348 725.52  351.52 722  356 722  Z " fill-rule="nonzero" fill="#f0f0f0" stroke="none" />
  <path d="M 356 722.5  C 360.2 722.5  363.5 725.8  363.5 730  C 363.5 734.2  360.2 737.5  356 737.5  C 351.8 737.5  348.5 734.2  348.5 730  C 348.5 725.8  351.8 722.5  356 722.5  Z " stroke-width="1" stroke="#8c8c8c" fill="none" />
  <path d="M 356 734  C 353.76 734  352 732.24  352 730  C 352 727.76  353.76 726  356 726  C 358.24 726  360 727.76  360 730  C 360 732.24  358.24 734  356 734  " fill-rule="nonzero" fill="#8c8c8c" stroke="none" />
</svg>