<?xml version="1.0" encoding="utf-8"?>
<svg version="1.1" xmlns:xlink="http://www.w3.org/1999/xlink" width="16px" height="16px" viewBox="348 692  16 16" xmlns="http://www.w3.org/2000/svg">
  <path d="M 356 692  C 360.48 692  364 695.52  364 700  C 364 704.48  360.48 708  356 708  C 351.52 708  348 704.48  348 700  C 348 695.52  351.52 692  356 692  Z " fill-rule="nonzero" fill="#f0f0f0" stroke="none" />
  <path d="M 356 692.5  C 360.2 692.5  363.5 695.8  363.5 700  C 363.5 704.2  360.2 707.5  356 707.5  C 351.8 707.5  348.5 704.2  348.5 700  C 348.5 695.8  351.8 692.5  356 692.5  Z " stroke-width="1" stroke="#8c8c8c" fill="none" />
  <path d="M 356 704  C 353.76 704  352 702.24  352 700  C 352 697.76  353.76 696  356 696  C 358.24 696  360 697.76  360 700  C 360 702.24  358.24 704  356 704  " fill-rule="nonzero" fill="#8c8c8c" stroke="none" />
</svg>