<?xml version="1.0" encoding="utf-8"?>
<svg version="1.1" xmlns:xlink="http://www.w3.org/1999/xlink" width="16px" height="16px" viewBox="348 662  16 16" xmlns="http://www.w3.org/2000/svg">
  <path d="M 356 662  C 360.48 662  364 665.52  364 670  C 364 674.48  360.48 678  356 678  C 351.52 678  348 674.48  348 670  C 348 665.52  351.52 662  356 662  Z " fill-rule="nonzero" fill="#f0f0f0" stroke="none" />
  <path d="M 356 662.5  C 360.2 662.5  363.5 665.8  363.5 670  C 363.5 674.2  360.2 677.5  356 677.5  C 351.8 677.5  348.5 674.2  348.5 670  C 348.5 665.8  351.8 662.5  356 662.5  Z " stroke-width="1" stroke="#8c8c8c" fill="none" />
  <path d="M 356 674  C 353.76 674  352 672.24  352 670  C 352 667.76  353.76 666  356 666  C 358.24 666  360 667.76  360 670  C 360 672.24  358.24 674  356 674  " fill-rule="nonzero" fill="#8c8c8c" stroke="none" />
</svg>